<?xml version="1.0" encoding="UTF-8"?>
<svg xmlns="http://www.w3.org/2000/svg" xmlns:xlink="http://www.w3.org/1999/xlink" width="100px" height="100px" viewBox="0 0 100 100" version="1.1">
<g id="surface1">
<path style=" stroke:none;fill-rule:nonzero;fill:rgb(31.764707%,27.058825%,89.803922%);fill-opacity:1;" d="M 33.433594 43.371094 C 32.710938 42.648438 31.820312 42.453125 30.871094 42.515625 C 29.253906 42.621094 28.203125 43.4375 27.722656 44.992188 C 27.273438 46.453125 27.308594 47.921875 27.902344 49.34375 C 28.839844 51.585938 31.371094 51.757812 32.761719 51 C 33.394531 50.65625 33.769531 50.101562 33.949219 49.40625 C 33.96875 49.328125 33.988281 49.246094 34.007812 49.15625 C 34.667969 49.15625 35.324219 49.15625 35.996094 49.15625 C 35.738281 50.667969 35.023438 51.851562 33.613281 52.492188 C 31.980469 53.230469 30.3125 53.21875 28.667969 52.519531 C 27.410156 51.980469 26.558594 51.011719 26.085938 49.746094 C 25.320312 47.703125 25.320312 45.65625 26.28125 43.679688 C 27.121094 41.949219 28.589844 41.074219 30.488281 40.898438 C 31.613281 40.792969 32.703125 40.910156 33.722656 41.414062 C 34.996094 42.050781 35.734375 43.085938 35.992188 44.507812 C 35.351562 44.507812 34.726562 44.511719 34.105469 44.5 C 34.054688 44.5 33.992188 44.402344 33.957031 44.339844 C 33.78125 44.023438 33.613281 43.703125 33.433594 43.371094 Z M 33.433594 43.371094 "/>
<path style=" stroke:none;fill-rule:nonzero;fill:rgb(31.764707%,27.058825%,89.803922%);fill-opacity:1;" d="M 48.601562 44.296875 C 50.671875 45.0625 51.421875 46.867188 51.289062 48.878906 C 49.058594 48.878906 46.824219 48.878906 44.554688 48.878906 C 44.730469 49.898438 45.121094 50.746094 46.03125 51.230469 C 46.917969 51.707031 47.8125 51.625 48.609375 51.015625 C 48.898438 50.796875 49.085938 50.449219 49.324219 50.164062 C 49.378906 50.097656 49.460938 50.007812 49.53125 50.007812 C 50.066406 49.992188 50.597656 50 51.214844 50 C 51.003906 50.414062 50.847656 50.808594 50.625 51.15625 C 49.867188 52.335938 48.753906 52.917969 47.367188 52.996094 C 45.992188 53.070312 44.804688 52.652344 43.882812 51.601562 C 43.097656 50.703125 42.796875 49.621094 42.824219 48.457031 C 42.867188 46.839844 43.453125 45.46875 44.894531 44.613281 C 46.050781 43.921875 47.308594 43.894531 48.601562 44.296875 M 48.875 47.5 C 49.09375 47.5 49.316406 47.5 49.539062 47.5 C 49.390625 46.320312 48.421875 45.414062 47.074219 45.46875 C 45.765625 45.519531 44.707031 46.453125 44.707031 47.480469 C 44.722656 47.488281 44.738281 47.496094 44.753906 47.496094 C 46.109375 47.5 47.46875 47.5 48.875 47.5 Z M 48.875 47.5 "/>
<path style=" stroke:none;fill-rule:nonzero;fill:rgb(32.156864%,27.450982%,89.803922%);fill-opacity:1;" d="M 82.191406 44.492188 C 83.394531 43.917969 84.601562 43.894531 85.808594 44.40625 C 86.828125 44.839844 87.351562 45.660156 87.492188 46.734375 C 87.554688 47.195312 87.574219 47.664062 87.578125 48.128906 C 87.589844 49.636719 87.582031 51.148438 87.582031 52.65625 C 87.582031 52.703125 87.574219 52.753906 87.570312 52.820312 C 87.011719 52.820312 86.460938 52.820312 85.875 52.820312 C 85.875 52.441406 85.875 52.058594 85.875 51.652344 C 85.636719 51.898438 85.441406 52.136719 85.210938 52.332031 C 84.734375 52.746094 84.152344 52.917969 83.539062 52.976562 C 82.765625 53.046875 82.003906 53.007812 81.308594 52.601562 C 80.4375 52.09375 80.113281 51.292969 80.164062 50.324219 C 80.214844 49.382812 80.730469 48.75 81.558594 48.351562 C 82.324219 47.980469 83.160156 47.859375 83.984375 47.699219 C 84.613281 47.578125 85.242188 47.460938 85.863281 47.339844 C 85.945312 46.429688 85.394531 45.667969 84.550781 45.503906 C 83.507812 45.300781 82.472656 45.738281 82.179688 46.886719 C 81.625 46.886719 81.070312 46.886719 80.5 46.886719 C 80.675781 45.8125 81.230469 45.019531 82.191406 44.492188 M 82.09375 49.769531 C 81.605469 50.464844 81.882812 51.296875 82.703125 51.492188 C 83.082031 51.582031 83.507812 51.609375 83.886719 51.535156 C 85.222656 51.273438 86.023438 50.195312 85.871094 48.648438 C 85.828125 48.652344 85.785156 48.648438 85.746094 48.65625 C 84.964844 48.816406 84.183594 48.972656 83.398438 49.132812 C 82.921875 49.234375 82.464844 49.375 82.09375 49.769531 Z M 82.09375 49.769531 "/>
<path style=" stroke:none;fill-rule:nonzero;fill:rgb(32.156864%,27.450982%,89.803922%);fill-opacity:1;" d="M 74.703125 46.492188 C 74.75 47.042969 74.824219 47.574219 74.828125 48.105469 C 74.84375 49.621094 74.835938 51.136719 74.835938 52.652344 C 74.835938 52.703125 74.828125 52.753906 74.824219 52.820312 C 74.265625 52.820312 73.714844 52.820312 73.128906 52.820312 C 73.128906 52.445312 73.128906 52.058594 73.128906 51.652344 C 72.890625 51.898438 72.691406 52.136719 72.464844 52.332031 C 71.988281 52.746094 71.40625 52.917969 70.789062 52.976562 C 70.027344 53.046875 69.273438 53.007812 68.585938 52.613281 C 67.707031 52.113281 67.371094 51.320312 67.414062 50.347656 C 67.457031 49.394531 67.976562 48.753906 68.8125 48.351562 C 69.578125 47.976562 70.414062 47.859375 71.238281 47.699219 C 71.867188 47.578125 72.496094 47.460938 73.117188 47.339844 C 73.203125 46.453125 72.695312 45.722656 71.859375 45.515625 C 70.746094 45.242188 69.859375 45.742188 69.417969 46.890625 C 68.871094 46.890625 68.324219 46.890625 67.753906 46.890625 C 67.90625 45.878906 68.398438 45.082031 69.269531 44.597656 C 70.648438 43.828125 72.058594 43.839844 73.4375 44.609375 C 74.160156 45.011719 74.535156 45.675781 74.703125 46.492188 M 69.136719 50.679688 C 69.222656 51.117188 69.507812 51.371094 69.921875 51.496094 C 71.691406 52.035156 73.417969 50.511719 73.128906 48.644531 C 73.054688 48.652344 72.984375 48.660156 72.914062 48.675781 C 72.277344 48.800781 71.636719 48.910156 71.007812 49.0625 C 70.574219 49.164062 70.136719 49.28125 69.730469 49.464844 C 69.246094 49.6875 69.066406 50.101562 69.136719 50.679688 Z M 69.136719 50.679688 "/>
<path style=" stroke:none;fill-rule:nonzero;fill:rgb(31.764707%,27.058825%,89.803922%);fill-opacity:1;" d="M 60.054688 52.6875 C 60 52.753906 59.949219 52.835938 59.898438 52.835938 C 59.398438 52.847656 58.898438 52.84375 58.371094 52.84375 C 58.371094 52.449219 58.371094 52.0625 58.371094 51.613281 C 58.179688 51.832031 58.039062 52.011719 57.878906 52.167969 C 57.367188 52.683594 56.722656 52.910156 56.019531 52.976562 C 55.242188 53.046875 54.480469 53.007812 53.789062 52.601562 C 52.878906 52.066406 52.570312 51.226562 52.65625 50.21875 C 52.730469 49.3125 53.265625 48.71875 54.0625 48.339844 C 54.824219 47.976562 55.652344 47.859375 56.46875 47.699219 C 57.089844 47.582031 57.710938 47.460938 58.328125 47.34375 C 58.441406 46.765625 58.136719 46.058594 57.601562 45.730469 C 56.824219 45.253906 55.5625 45.371094 54.988281 46.1875 C 54.890625 46.328125 54.785156 46.484375 54.746094 46.644531 C 54.691406 46.878906 54.570312 46.914062 54.359375 46.90625 C 53.914062 46.890625 53.464844 46.898438 52.984375 46.898438 C 53.082031 46.195312 53.355469 45.605469 53.835938 45.117188 C 54.726562 44.21875 55.835938 43.972656 57.046875 44.074219 C 57.609375 44.121094 58.140625 44.292969 58.628906 44.578125 C 59.507812 45.097656 59.894531 45.917969 59.996094 46.894531 C 60.042969 47.339844 60.050781 47.789062 60.050781 48.238281 C 60.058594 49.714844 60.054688 51.1875 60.054688 52.6875 M 54.410156 50.050781 C 54.195312 50.773438 54.496094 51.339844 55.230469 51.519531 C 56.253906 51.765625 57.136719 51.476562 57.820312 50.6875 C 58.324219 50.109375 58.386719 49.390625 58.386719 48.59375 C 57.296875 48.84375 56.25 49.070312 55.214844 49.335938 C 54.867188 49.425781 54.574219 49.65625 54.410156 50.050781 Z M 54.410156 50.050781 "/>
<path style=" stroke:none;fill-rule:nonzero;fill:rgb(32.156864%,27.450982%,89.803922%);fill-opacity:1;" d="M 13.289062 45.992188 C 13.960938 45.332031 14.222656 44.492188 14.34375 43.621094 C 14.503906 42.476562 14.585938 41.320312 14.699219 40.171875 C 14.714844 40.011719 14.730469 39.855469 14.742188 39.707031 C 14.769531 39.699219 14.777344 39.699219 14.785156 39.695312 C 14.78125 39.703125 14.773438 39.707031 14.773438 39.710938 C 14.871094 41.207031 14.988281 42.699219 15.289062 44.171875 C 15.585938 45.601562 16.421875 46.480469 17.824219 46.851562 C 18.871094 47.125 19.941406 47.207031 21.011719 47.300781 C 21.484375 47.339844 21.957031 47.375 22.429688 47.4375 C 21.730469 47.492188 21.03125 47.515625 20.335938 47.605469 C 19.449219 47.722656 18.550781 47.835938 17.683594 48.050781 C 16.375 48.378906 15.613281 49.28125 15.300781 50.578125 C 15.023438 51.71875 14.933594 52.878906 14.847656 54.042969 C 14.820312 54.40625 14.796875 54.769531 14.730469 55.128906 C 14.6875 54.546875 14.671875 53.960938 14.59375 53.382812 C 14.464844 52.375 14.347656 51.363281 14.128906 50.375 C 13.847656 49.109375 13.003906 48.3125 11.746094 48.015625 C 10.953125 47.832031 10.144531 47.714844 9.335938 47.613281 C 8.609375 47.523438 7.875 47.492188 7.140625 47.402344 C 7.261719 47.390625 7.378906 47.375 7.5 47.363281 C 8.796875 47.214844 10.097656 47.082031 11.390625 46.90625 C 12.105469 46.808594 12.746094 46.503906 13.289062 45.992188 Z M 13.289062 45.992188 "/>
<path style=" stroke:none;fill-rule:nonzero;fill:rgb(31.764707%,27.058825%,89.803922%);fill-opacity:1;" d="M 64.410156 47.050781 C 64.410156 48.117188 64.40625 49.160156 64.410156 50.199219 C 64.410156 50.351562 64.414062 50.5 64.425781 50.648438 C 64.476562 51.183594 64.660156 51.367188 65.203125 51.394531 C 65.527344 51.410156 65.847656 51.394531 66.183594 51.394531 C 66.183594 51.890625 66.183594 52.351562 66.183594 52.871094 C 65.457031 52.839844 64.738281 52.863281 64.035156 52.765625 C 63.261719 52.65625 62.839844 52.132812 62.753906 51.347656 C 62.726562 51.105469 62.710938 50.863281 62.710938 50.625 C 62.707031 49.066406 62.710938 47.507812 62.710938 45.949219 C 62.710938 45.859375 62.710938 45.769531 62.710938 45.652344 C 62.261719 45.652344 61.832031 45.652344 61.394531 45.652344 C 61.394531 45.171875 61.394531 44.714844 61.394531 44.226562 C 61.828125 44.226562 62.253906 44.226562 62.703125 44.226562 C 62.703125 43.15625 62.703125 42.117188 62.703125 41.0625 C 63.28125 41.0625 63.832031 41.0625 64.40625 41.0625 C 64.40625 42.105469 64.40625 43.144531 64.40625 44.210938 C 65.007812 44.210938 65.585938 44.210938 66.183594 44.210938 C 66.183594 44.699219 66.183594 45.160156 66.183594 45.640625 C 65.605469 45.640625 65.027344 45.640625 64.410156 45.640625 C 64.410156 46.117188 64.410156 46.570312 64.410156 47.050781 Z M 64.410156 47.050781 "/>
<path style=" stroke:none;fill-rule:nonzero;fill:rgb(31.764707%,27.058825%,89.803922%);fill-opacity:1;" d="M 40.84375 45.832031 C 39.871094 46.121094 39.492188 46.851562 39.351562 47.753906 C 39.304688 48.0625 39.296875 48.382812 39.296875 48.699219 C 39.289062 49.980469 39.292969 51.265625 39.292969 52.546875 C 39.292969 52.636719 39.292969 52.726562 39.292969 52.828125 C 38.722656 52.828125 38.175781 52.828125 37.613281 52.828125 C 37.613281 49.964844 37.613281 47.105469 37.613281 44.234375 C 38.164062 44.234375 38.710938 44.234375 39.28125 44.234375 C 39.28125 44.566406 39.28125 44.894531 39.28125 45.222656 C 39.296875 45.238281 39.3125 45.253906 39.328125 45.265625 C 40.027344 44.375 40.949219 43.996094 42.074219 44.058594 C 42.074219 44.609375 42.074219 45.152344 42.074219 45.6875 C 41.667969 45.734375 41.265625 45.78125 40.84375 45.832031 Z M 40.84375 45.832031 "/>
<path style=" stroke:none;fill-rule:nonzero;fill:rgb(31.764707%,27.058825%,89.803922%);fill-opacity:1;" d="M 89.542969 50.398438 C 89.542969 48.335938 89.542969 46.296875 89.542969 44.238281 C 90.113281 44.238281 90.664062 44.238281 91.230469 44.238281 C 91.230469 47.101562 91.230469 49.953125 91.230469 52.824219 C 90.671875 52.824219 90.121094 52.824219 89.542969 52.824219 C 89.542969 52.019531 89.542969 51.222656 89.542969 50.398438 Z M 89.542969 50.398438 "/>
<path style=" stroke:none;fill-rule:nonzero;fill:rgb(32.156864%,27.450982%,89.803922%);fill-opacity:1;" d="M 90.1875 40.882812 C 90.683594 40.820312 91.085938 40.960938 91.355469 41.367188 C 91.585938 41.710938 91.597656 42.082031 91.398438 42.453125 C 91.113281 42.96875 90.394531 43.175781 89.851562 42.898438 C 89.316406 42.625 89.089844 41.996094 89.351562 41.480469 C 89.519531 41.144531 89.804688 40.957031 90.1875 40.882812 Z M 90.1875 40.882812 "/>
<path style=" stroke:none;fill-rule:nonzero;fill:rgb(32.156864%,27.450982%,89.803922%);fill-opacity:1;" d="M 78.335938 52.738281 C 77.839844 53.09375 77.308594 53.078125 76.910156 52.703125 C 76.535156 52.347656 76.453125 51.8125 76.710938 51.386719 C 77.023438 50.863281 77.726562 50.707031 78.234375 51.042969 C 78.742188 51.382812 78.859375 52.050781 78.496094 52.554688 C 78.453125 52.617188 78.398438 52.667969 78.335938 52.738281 Z M 78.335938 52.738281 "/>
<path style=" stroke:none;fill-rule:nonzero;fill:rgb(33.333334%,28.627452%,90.196079%);fill-opacity:1;" d="M 19.597656 53.066406 C 19.550781 53.40625 19.503906 53.71875 19.457031 54.035156 C 19.441406 54.035156 19.425781 54.035156 19.410156 54.03125 C 19.375 53.777344 19.339844 53.523438 19.304688 53.269531 C 19.199219 52.503906 18.828125 52.140625 18.058594 52.046875 C 17.820312 52.015625 17.582031 51.992188 17.347656 51.964844 C 17.347656 51.941406 17.347656 51.921875 17.347656 51.898438 C 17.585938 51.867188 17.828125 51.84375 18.070312 51.8125 C 18.875 51.695312 19.207031 51.363281 19.308594 50.558594 C 19.339844 50.316406 19.367188 50.078125 19.398438 49.835938 C 19.421875 49.835938 19.441406 49.835938 19.460938 49.839844 C 19.503906 50.140625 19.542969 50.441406 19.589844 50.742188 C 19.6875 51.355469 19.976562 51.652344 20.582031 51.761719 C 20.875 51.8125 21.171875 51.859375 21.464844 51.96875 C 21.191406 52.011719 20.914062 52.054688 20.640625 52.09375 C 20.078125 52.175781 19.707031 52.46875 19.597656 53.066406 Z M 19.597656 53.066406 "/>
<path style=" stroke:none;fill-rule:nonzero;fill:rgb(33.333334%,28.627452%,90.196079%);fill-opacity:1;" d="M 10.042969 41.597656 C 10.074219 41.792969 10.097656 41.964844 10.140625 42.132812 C 10.265625 42.664062 10.640625 42.914062 11.148438 43.003906 C 11.4375 43.054688 11.730469 43.089844 12.015625 43.191406 C 11.773438 43.222656 11.53125 43.25 11.289062 43.285156 C 10.460938 43.414062 10.121094 43.777344 10.042969 44.617188 C 10.023438 44.820312 9.988281 45.019531 9.914062 45.214844 C 9.867188 44.902344 9.824219 44.59375 9.773438 44.28125 C 9.664062 43.671875 9.273438 43.371094 8.683594 43.289062 C 8.398438 43.25 8.113281 43.214844 7.832031 43.125 C 8.109375 43.085938 8.390625 43.042969 8.671875 43.003906 C 9.375 42.910156 9.695312 42.59375 9.800781 41.890625 C 9.839844 41.628906 9.890625 41.375 9.980469 41.121094 C 10 41.273438 10.023438 41.425781 10.042969 41.597656 Z M 10.042969 41.597656 "/>
</g>
</svg>
