<?xml version="1.0" encoding="UTF-8"?>
<svg xmlns="http://www.w3.org/2000/svg" xmlns:xlink="http://www.w3.org/1999/xlink" width="150px" height="100px" viewBox="0 0 150 100" version="1.1">
<g id="surface1">
<path style=" stroke:none;fill-rule:nonzero;fill:rgb(31.764707%,27.058825%,89.803922%);fill-opacity:1;" d="M 50.148438 43.371094 C 49.066406 42.648438 47.730469 42.453125 46.304688 42.515625 C 43.882812 42.621094 42.304688 43.4375 41.585938 44.992188 C 40.910156 46.453125 40.960938 47.921875 41.855469 49.34375 C 43.261719 51.585938 47.054688 51.757812 49.140625 51 C 50.09375 50.65625 50.65625 50.101562 50.921875 49.40625 C 50.953125 49.328125 50.980469 49.246094 51.015625 49.15625 C 52.003906 49.15625 52.984375 49.15625 53.996094 49.15625 C 53.605469 50.667969 52.535156 51.851562 50.417969 52.492188 C 47.972656 53.230469 45.46875 53.21875 43.003906 52.519531 C 41.113281 51.980469 39.839844 51.011719 39.125 49.746094 C 37.980469 47.703125 37.980469 45.65625 39.421875 43.679688 C 40.683594 41.949219 42.882812 41.074219 45.734375 40.898438 C 47.421875 40.792969 49.054688 40.910156 50.585938 41.414062 C 52.496094 42.050781 53.601562 43.085938 53.988281 44.507812 C 53.027344 44.507812 52.089844 44.511719 51.15625 44.5 C 51.082031 44.5 50.992188 44.402344 50.9375 44.339844 C 50.675781 44.023438 50.421875 43.703125 50.148438 43.371094 Z M 50.148438 43.371094 "/>
<path style=" stroke:none;fill-rule:nonzero;fill:rgb(31.764707%,27.058825%,89.803922%);fill-opacity:1;" d="M 72.902344 44.296875 C 76.007812 45.0625 77.132812 46.867188 76.933594 48.878906 C 73.585938 48.878906 70.238281 48.878906 66.832031 48.878906 C 67.097656 49.898438 67.683594 50.746094 69.046875 51.230469 C 70.378906 51.707031 71.71875 51.625 72.917969 51.015625 C 73.347656 50.796875 73.625 50.449219 73.984375 50.164062 C 74.070312 50.097656 74.191406 50.007812 74.296875 50.007812 C 75.097656 49.992188 75.894531 50 76.820312 50 C 76.507812 50.414062 76.273438 50.808594 75.9375 51.15625 C 74.800781 52.335938 73.128906 52.917969 71.050781 52.996094 C 68.988281 53.070312 67.207031 52.652344 65.824219 51.601562 C 64.648438 50.703125 64.195312 49.621094 64.238281 48.457031 C 64.300781 46.839844 65.183594 45.46875 67.339844 44.613281 C 69.078125 43.921875 70.964844 43.894531 72.902344 44.296875 M 73.3125 47.5 C 73.640625 47.5 73.972656 47.5 74.308594 47.5 C 74.085938 46.320312 72.632812 45.414062 70.609375 45.46875 C 68.648438 45.519531 67.0625 46.453125 67.058594 47.480469 C 67.082031 47.488281 67.105469 47.496094 67.128906 47.496094 C 69.164062 47.5 71.203125 47.5 73.3125 47.5 Z M 73.3125 47.5 "/>
<path style=" stroke:none;fill-rule:nonzero;fill:rgb(32.156864%,27.450982%,89.803922%);fill-opacity:1;" d="M 123.285156 44.492188 C 125.09375 43.917969 126.902344 43.894531 128.710938 44.40625 C 130.242188 44.839844 131.03125 45.660156 131.238281 46.734375 C 131.332031 47.195312 131.363281 47.664062 131.367188 48.128906 C 131.382812 49.636719 131.375 51.148438 131.371094 52.65625 C 131.371094 52.703125 131.363281 52.753906 131.359375 52.820312 C 130.519531 52.820312 129.691406 52.820312 128.8125 52.820312 C 128.8125 52.441406 128.8125 52.058594 128.8125 51.652344 C 128.453125 51.898438 128.160156 52.136719 127.816406 52.332031 C 127.101562 52.746094 126.230469 52.917969 125.308594 52.976562 C 124.148438 53.046875 123.003906 53.007812 121.964844 52.601562 C 120.660156 52.09375 120.171875 51.292969 120.246094 50.324219 C 120.320312 49.382812 121.097656 48.75 122.335938 48.351562 C 123.488281 47.980469 124.742188 47.859375 125.976562 47.699219 C 126.917969 47.578125 127.863281 47.460938 128.796875 47.339844 C 128.917969 46.429688 128.09375 45.667969 126.828125 45.503906 C 125.261719 45.300781 123.707031 45.738281 123.265625 46.886719 C 122.441406 46.886719 121.605469 46.886719 120.75 46.886719 C 121.011719 45.8125 121.84375 45.019531 123.285156 44.492188 M 123.136719 49.769531 C 122.410156 50.464844 122.824219 51.296875 124.058594 51.492188 C 124.625 51.582031 125.261719 51.609375 125.828125 51.535156 C 127.832031 51.273438 129.035156 50.195312 128.804688 48.648438 C 128.742188 48.652344 128.679688 48.648438 128.617188 48.65625 C 127.445312 48.816406 126.273438 48.972656 125.101562 49.132812 C 124.382812 49.234375 123.695312 49.375 123.136719 49.769531 Z M 123.136719 49.769531 "/>
<path style=" stroke:none;fill-rule:nonzero;fill:rgb(32.156864%,27.450982%,89.803922%);fill-opacity:1;" d="M 112.058594 46.492188 C 112.125 47.042969 112.234375 47.574219 112.242188 48.105469 C 112.269531 49.621094 112.253906 51.136719 112.25 52.652344 C 112.25 52.703125 112.242188 52.753906 112.238281 52.820312 C 111.398438 52.820312 110.570312 52.820312 109.691406 52.820312 C 109.691406 52.445312 109.691406 52.058594 109.691406 51.652344 C 109.332031 51.898438 109.039062 52.136719 108.695312 52.332031 C 107.980469 52.746094 107.109375 52.917969 106.1875 52.976562 C 105.039062 53.046875 103.910156 53.007812 102.875 52.613281 C 101.5625 52.113281 101.058594 51.320312 101.125 50.347656 C 101.1875 49.394531 101.960938 48.753906 103.214844 48.351562 C 104.367188 47.976562 105.621094 47.859375 106.855469 47.699219 C 107.796875 47.578125 108.742188 47.460938 109.679688 47.339844 C 109.804688 46.453125 109.039062 45.722656 107.789062 45.515625 C 106.121094 45.242188 104.789062 45.742188 104.125 46.890625 C 103.308594 46.890625 102.484375 46.890625 101.632812 46.890625 C 101.859375 45.878906 102.59375 45.082031 103.90625 44.597656 C 105.96875 43.828125 108.089844 43.839844 110.160156 44.609375 C 111.238281 45.011719 111.804688 45.675781 112.058594 46.492188 M 103.707031 50.679688 C 103.835938 51.117188 104.265625 51.371094 104.878906 51.496094 C 107.539062 52.035156 110.125 50.511719 109.691406 48.644531 C 109.585938 48.652344 109.476562 48.660156 109.367188 48.675781 C 108.414062 48.800781 107.457031 48.910156 106.511719 49.0625 C 105.859375 49.164062 105.203125 49.28125 104.597656 49.464844 C 103.867188 49.6875 103.597656 50.101562 103.707031 50.679688 Z M 103.707031 50.679688 "/>
<path style=" stroke:none;fill-rule:nonzero;fill:rgb(31.764707%,27.058825%,89.803922%);fill-opacity:1;" d="M 90.082031 52.6875 C 90.003906 52.753906 89.925781 52.835938 89.847656 52.835938 C 89.097656 52.847656 88.347656 52.84375 87.554688 52.84375 C 87.554688 52.449219 87.554688 52.0625 87.554688 51.613281 C 87.265625 51.832031 87.058594 52.011719 86.820312 52.167969 C 86.050781 52.683594 85.085938 52.910156 84.027344 52.976562 C 82.867188 53.046875 81.722656 53.007812 80.683594 52.601562 C 79.320312 52.066406 78.855469 51.226562 78.984375 50.21875 C 79.097656 49.3125 79.898438 48.71875 81.097656 48.339844 C 82.238281 47.976562 83.480469 47.859375 84.703125 47.699219 C 85.632812 47.582031 86.566406 47.460938 87.492188 47.34375 C 87.660156 46.765625 87.203125 46.058594 86.40625 45.730469 C 85.234375 45.253906 83.34375 45.371094 82.484375 46.1875 C 82.332031 46.328125 82.179688 46.484375 82.121094 46.644531 C 82.039062 46.878906 81.855469 46.914062 81.539062 46.90625 C 80.867188 46.890625 80.195312 46.898438 79.480469 46.898438 C 79.621094 46.195312 80.035156 45.605469 80.757812 45.117188 C 82.089844 44.21875 83.75 43.972656 85.570312 44.074219 C 86.414062 44.121094 87.210938 44.292969 87.941406 44.578125 C 89.265625 45.097656 89.84375 45.917969 89.992188 46.894531 C 90.0625 47.339844 90.074219 47.789062 90.078125 48.238281 C 90.085938 49.714844 90.082031 51.1875 90.082031 52.6875 M 81.613281 50.050781 C 81.292969 50.773438 81.746094 51.339844 82.847656 51.519531 C 84.378906 51.765625 85.703125 51.476562 86.734375 50.6875 C 87.484375 50.109375 87.578125 49.390625 87.578125 48.59375 C 85.945312 48.84375 84.375 49.070312 82.820312 49.335938 C 82.300781 49.425781 81.859375 49.65625 81.613281 50.050781 Z M 81.613281 50.050781 "/>
<path style=" stroke:none;fill-rule:nonzero;fill:rgb(32.156864%,27.450982%,89.803922%);fill-opacity:1;" d="M 19.933594 45.992188 C 20.9375 45.332031 21.332031 44.492188 21.515625 43.621094 C 21.757812 42.476562 21.878906 41.320312 22.050781 40.171875 C 22.074219 40.011719 22.09375 39.855469 22.117188 39.707031 C 22.15625 39.699219 22.167969 39.699219 22.179688 39.695312 C 22.171875 39.703125 22.160156 39.707031 22.160156 39.710938 C 22.308594 41.207031 22.480469 42.699219 22.9375 44.171875 C 23.378906 45.601562 24.632812 46.480469 26.738281 46.851562 C 28.304688 47.125 29.914062 47.207031 31.515625 47.300781 C 32.226562 47.339844 32.933594 47.375 33.640625 47.4375 C 32.597656 47.492188 31.542969 47.515625 30.503906 47.605469 C 29.171875 47.722656 27.828125 47.835938 26.527344 48.050781 C 24.566406 48.378906 23.417969 49.28125 22.949219 50.578125 C 22.535156 51.71875 22.398438 52.878906 22.273438 54.042969 C 22.230469 54.40625 22.191406 54.769531 22.097656 55.128906 C 22.03125 54.546875 22.007812 53.960938 21.894531 53.382812 C 21.695312 52.375 21.523438 51.363281 21.191406 50.375 C 20.769531 49.109375 19.507812 48.3125 17.617188 48.015625 C 16.429688 47.832031 15.214844 47.714844 14.003906 47.613281 C 12.914062 47.523438 11.816406 47.492188 10.710938 47.402344 C 10.890625 47.390625 11.070312 47.375 11.25 47.363281 C 13.195312 47.214844 15.148438 47.082031 17.089844 46.90625 C 18.160156 46.808594 19.117188 46.503906 19.933594 45.992188 Z M 19.933594 45.992188 "/>
<path style=" stroke:none;fill-rule:nonzero;fill:rgb(31.764707%,27.058825%,89.803922%);fill-opacity:1;" d="M 96.613281 47.050781 C 96.613281 48.117188 96.613281 49.160156 96.613281 50.199219 C 96.613281 50.351562 96.621094 50.5 96.640625 50.648438 C 96.714844 51.183594 96.992188 51.367188 97.804688 51.394531 C 98.289062 51.410156 98.773438 51.394531 99.273438 51.394531 C 99.273438 51.890625 99.273438 52.351562 99.273438 52.871094 C 98.183594 52.839844 97.105469 52.863281 96.054688 52.765625 C 94.894531 52.65625 94.261719 52.132812 94.128906 51.347656 C 94.089844 51.105469 94.070312 50.863281 94.066406 50.625 C 94.0625 49.066406 94.066406 47.507812 94.066406 45.949219 C 94.066406 45.859375 94.066406 45.769531 94.066406 45.652344 C 93.390625 45.652344 92.75 45.652344 92.089844 45.652344 C 92.089844 45.171875 92.089844 44.714844 92.089844 44.226562 C 92.742188 44.226562 93.382812 44.226562 94.058594 44.226562 C 94.058594 43.15625 94.058594 42.117188 94.058594 41.0625 C 94.917969 41.0625 95.746094 41.0625 96.609375 41.0625 C 96.609375 42.105469 96.609375 43.144531 96.609375 44.210938 C 97.511719 44.210938 98.378906 44.210938 99.277344 44.210938 C 99.277344 44.699219 99.277344 45.160156 99.277344 45.640625 C 98.410156 45.640625 97.539062 45.640625 96.613281 45.640625 C 96.613281 46.117188 96.613281 46.570312 96.613281 47.050781 Z M 96.613281 47.050781 "/>
<path style=" stroke:none;fill-rule:nonzero;fill:rgb(31.764707%,27.058825%,89.803922%);fill-opacity:1;" d="M 61.265625 45.832031 C 59.808594 46.121094 59.238281 46.851562 59.03125 47.753906 C 58.957031 48.0625 58.949219 48.382812 58.945312 48.699219 C 58.9375 49.980469 58.941406 51.265625 58.941406 52.546875 C 58.941406 52.636719 58.941406 52.726562 58.941406 52.828125 C 58.082031 52.828125 57.265625 52.828125 56.417969 52.828125 C 56.417969 49.964844 56.417969 47.105469 56.417969 44.234375 C 57.246094 44.234375 58.066406 44.234375 58.921875 44.234375 C 58.921875 44.566406 58.921875 44.894531 58.921875 45.222656 C 58.945312 45.238281 58.96875 45.253906 58.988281 45.265625 C 60.042969 44.375 61.421875 43.996094 63.109375 44.058594 C 63.109375 44.609375 63.109375 45.152344 63.109375 45.6875 C 62.5 45.734375 61.898438 45.78125 61.265625 45.832031 Z M 61.265625 45.832031 "/>
<path style=" stroke:none;fill-rule:nonzero;fill:rgb(31.764707%,27.058825%,89.803922%);fill-opacity:1;" d="M 134.3125 50.398438 C 134.3125 48.335938 134.3125 46.296875 134.3125 44.238281 C 135.167969 44.238281 135.996094 44.238281 136.847656 44.238281 C 136.847656 47.101562 136.847656 49.953125 136.847656 52.824219 C 136.011719 52.824219 135.183594 52.824219 134.3125 52.824219 C 134.3125 52.019531 134.3125 51.222656 134.3125 50.398438 Z M 134.3125 50.398438 "/>
<path style=" stroke:none;fill-rule:nonzero;fill:rgb(32.156864%,27.450982%,89.803922%);fill-opacity:1;" d="M 135.28125 40.882812 C 136.027344 40.820312 136.628906 40.960938 137.035156 41.367188 C 137.382812 41.710938 137.394531 42.082031 137.09375 42.453125 C 136.671875 42.96875 135.59375 43.175781 134.777344 42.898438 C 133.972656 42.625 133.636719 41.996094 134.027344 41.480469 C 134.28125 41.144531 134.703125 40.957031 135.28125 40.882812 Z M 135.28125 40.882812 "/>
<path style=" stroke:none;fill-rule:nonzero;fill:rgb(32.156864%,27.450982%,89.803922%);fill-opacity:1;" d="M 117.5 52.738281 C 116.757812 53.09375 115.960938 53.078125 115.367188 52.703125 C 114.800781 52.347656 114.679688 51.8125 115.066406 51.386719 C 115.539062 50.863281 116.589844 50.707031 117.347656 51.042969 C 118.113281 51.382812 118.289062 52.050781 117.742188 52.554688 C 117.679688 52.617188 117.597656 52.667969 117.5 52.738281 Z M 117.5 52.738281 "/>
<path style=" stroke:none;fill-rule:nonzero;fill:rgb(33.333334%,28.627452%,90.196079%);fill-opacity:1;" d="M 29.398438 53.066406 C 29.324219 53.40625 29.253906 53.71875 29.1875 54.035156 C 29.160156 54.035156 29.136719 54.035156 29.113281 54.03125 C 29.0625 53.777344 29.007812 53.523438 28.957031 53.269531 C 28.796875 52.503906 28.238281 52.140625 27.085938 52.046875 C 26.730469 52.015625 26.375 51.992188 26.019531 51.964844 C 26.019531 51.941406 26.019531 51.921875 26.019531 51.898438 C 26.382812 51.867188 26.742188 51.84375 27.101562 51.8125 C 28.3125 51.695312 28.808594 51.363281 28.960938 50.558594 C 29.007812 50.316406 29.054688 50.078125 29.097656 49.835938 C 29.128906 49.835938 29.160156 49.835938 29.191406 49.839844 C 29.257812 50.140625 29.316406 50.441406 29.386719 50.742188 C 29.53125 51.355469 29.964844 51.652344 30.871094 51.761719 C 31.316406 51.8125 31.757812 51.859375 32.199219 51.96875 C 31.785156 52.011719 31.371094 52.054688 30.960938 52.09375 C 30.117188 52.175781 29.5625 52.46875 29.398438 53.066406 Z M 29.398438 53.066406 "/>
<path style=" stroke:none;fill-rule:nonzero;fill:rgb(33.333334%,28.627452%,90.196079%);fill-opacity:1;" d="M 15.0625 41.597656 C 15.113281 41.792969 15.148438 41.964844 15.210938 42.132812 C 15.398438 42.664062 15.960938 42.914062 16.722656 43.003906 C 17.15625 43.054688 17.59375 43.089844 18.027344 43.191406 C 17.660156 43.222656 17.296875 43.25 16.933594 43.285156 C 15.6875 43.414062 15.183594 43.777344 15.066406 44.617188 C 15.035156 44.820312 14.980469 45.019531 14.871094 45.214844 C 14.800781 44.902344 14.738281 44.59375 14.65625 44.28125 C 14.5 43.671875 13.910156 43.371094 13.023438 43.289062 C 12.597656 43.25 12.167969 43.214844 11.746094 43.125 C 12.167969 43.085938 12.585938 43.042969 13.003906 43.003906 C 14.058594 42.910156 14.542969 42.59375 14.699219 41.890625 C 14.757812 41.628906 14.835938 41.375 14.972656 41.121094 C 15.003906 41.273438 15.03125 41.425781 15.0625 41.597656 Z M 15.0625 41.597656 "/>
</g>
</svg>
